<mxfile host="app.diagrams.net" agent="Mozilla/5.0 (Windows NT 10.0; Win64; x64) AppleWebKit/537.36 (KHTML, like Gecko) Chrome/129.0.0.0 Safari/537.36" version="24.7.17">
  <diagram name="Side-1" id="S46JOMoHg1zSr5j-LTWW">
    <mxGraphModel dx="2026" dy="630" grid="1" gridSize="10" guides="1" tooltips="1" connect="1" arrows="1" fold="1" page="1" pageScale="1" pageWidth="827" pageHeight="1169" math="0" shadow="0">
      <root>
        <mxCell id="0" />
        <mxCell id="1" parent="0" />
        <mxCell id="bIl1oVP9R7wfNS6xyu3X-1" value="&lt;font style=&quot;font-size: 26px;&quot;&gt;MCU&lt;br style=&quot;font-size: 26px;&quot;&gt;(Main Processor)&lt;/font&gt;" style="swimlane;whiteSpace=wrap;html=1;startSize=70;strokeWidth=2;fillColor=#dae8fc;strokeColor=#6c8ebf;fontSize=26;" vertex="1" parent="1">
          <mxGeometry x="143" y="120" width="582.5" height="450" as="geometry" />
        </mxCell>
        <mxCell id="bIl1oVP9R7wfNS6xyu3X-2" style="edgeStyle=orthogonalEdgeStyle;rounded=0;orthogonalLoop=1;jettySize=auto;html=1;entryX=0;entryY=0.5;entryDx=0;entryDy=0;strokeWidth=2;fontSize=26;" edge="1" parent="bIl1oVP9R7wfNS6xyu3X-1" source="bIl1oVP9R7wfNS6xyu3X-3" target="bIl1oVP9R7wfNS6xyu3X-19">
          <mxGeometry relative="1" as="geometry" />
        </mxCell>
        <mxCell id="bIl1oVP9R7wfNS6xyu3X-3" value="" style="rounded=1;whiteSpace=wrap;html=1;fillColor=none;" vertex="1" parent="bIl1oVP9R7wfNS6xyu3X-1">
          <mxGeometry x="27.5" y="113.75" width="330" height="140" as="geometry" />
        </mxCell>
        <mxCell id="bIl1oVP9R7wfNS6xyu3X-4" value="" style="shape=image;verticalLabelPosition=bottom;labelBackgroundColor=default;verticalAlign=top;aspect=fixed;imageAspect=0;image=data:image/png,iVBORw0KGgoAAAANSUhEUgAAAHwAAABACAYAAADYphNoAAAAAXNSR0IArs4c6QAAAARnQU1BAACxjwv8YQUAAAAJcEhZcwAADsMAAA7DAcdvqGQAAAOcSURBVHhe7Z2xSitBFIYnF4LaRNTWQg2k0UIImNJACisVUqgQyCP4BIJa+A7WEoVgIUnaCPoIIpZK3kAUxM41Z+8ZEu+9cLO7M2f2zJ4Pwu7MbjG7Hzn/zmwguWCIEjLDL9wKGcGp8M/PT9wTqHAqvFKpqHq9ji2BAmfC4dFhMBioxcVF7BEocCb8+fk53M7Pz4dbgQZnwu/u7tTS0hK2BCpEeMZwIhzyW4S7wYlwyW93OBEO3+5qtYotgRIRnjHIhev8FuFuIBeu87tYLIZbgRZy4frbncvlsEegxJlwwQ2kwiW/3UMqXPLbPaTCJb/d40S44A4y4ZLf6YBMuOR3OiATLvmdDsiFC24hES75nR5IhEt+pwcS4T7k98fHB+7xhlQ4Vw4ODlS5XMYWb6wL9yG/l5eXw9/Qv7+/Yw9frAv3Ib+npqbCH1z2ej3s4Yt14T7kN7C6uqqur6+xxRcy4dwplUrhtXAv61aF+zT/hrK+ubnJvqxbFe7b/Htvb499Wbcq3Jf81mxvb7Mv6yTCfaFQKLAv69aE+7p+zr2sWxPu6/o597JuTbhv+a3hXtatC/cRzmXdinDf339zLutWhPv+/ptzWbci3Nf8HodrWbcq3Ge4lnXjwn3M79fXV9wbocv61dUV9vDAuHDf8vv29lZdXl6qZrOJPSPOzs7U0dFReA4XjAv3Kb9B5P7+vmq322plZQV7R6ytrYXH4Bwu0q0J58647Fqthr1/A8c4STcq3Jf8nlS2hpN0o8J9yO+osjVcpBsV3u12I+c3/BoUKkMaiCtbMy79/Pzc6pTt5eUF9yIyvNlG6Pf7wcLCQvD09IQ9/2c43QnW19fDz83NTfD19YVH6NHjh21SHh8fg93d3WB2djbY2dkJWq1W8Pb2hkeTc3h4GMzMzMQaqxHhSW4WSAbZLsWblD0OSAbZpuUfHx8Hw2lirDEnFm7qZrkSb0v2n5iUD8LhE2fsiYTbuFmU4m2MfxKSytfCgajXEFu47ZtlW7zt8U9KHPnjwoEo1xLrf8vgCXFjYyP202wUYHidTkednp6G7a2tLTU9PR3uxwXWxmG5lGL8UYCnenjlCm/hYD0D1uphNS+fz+MZv9FrHScnJ9gzmmE0Gg01NzeHvSP0ubH/qA6k/2u50RYwTLjQ+/t77EkGrI1Tjj8qIB8kPjw8YM9PxmVrwMnFxQW2fpJYuMAT42vpQroR4RlDhGcMEZ4xRHimUOobPCKuRTtlFeUAAAAASUVORK5CYII=;" vertex="1" parent="bIl1oVP9R7wfNS6xyu3X-1">
          <mxGeometry x="49.64999999999998" y="189.5" width="82.35" height="42.5" as="geometry" />
        </mxCell>
        <mxCell id="bIl1oVP9R7wfNS6xyu3X-5" value="&lt;font style=&quot;font-size: 18px;&quot;&gt;DFT&lt;/font&gt;" style="text;html=1;align=center;verticalAlign=middle;resizable=0;points=[];autosize=1;strokeColor=none;fillColor=none;fontSize=18;" vertex="1" parent="bIl1oVP9R7wfNS6xyu3X-1">
          <mxGeometry x="60.82999999999993" y="160.75" width="60" height="40" as="geometry" />
        </mxCell>
        <mxCell id="bIl1oVP9R7wfNS6xyu3X-6" value="" style="ellipse;whiteSpace=wrap;html=1;aspect=fixed;" vertex="1" parent="bIl1oVP9R7wfNS6xyu3X-1">
          <mxGeometry x="242.5" y="180.75" width="40" height="40" as="geometry" />
        </mxCell>
        <mxCell id="bIl1oVP9R7wfNS6xyu3X-7" value="" style="endArrow=openThin;html=1;rounded=0;entryX=1;entryY=0;entryDx=0;entryDy=0;strokeWidth=1;endFill=0;fillColor=#bac8d3;strokeColor=#23445d;fontSize=26;" edge="1" parent="bIl1oVP9R7wfNS6xyu3X-1" target="bIl1oVP9R7wfNS6xyu3X-6">
          <mxGeometry width="50" height="50" relative="1" as="geometry">
            <mxPoint x="262.5" y="200.64999999999998" as="sourcePoint" />
            <mxPoint x="282.5" y="200.64999999999998" as="targetPoint" />
          </mxGeometry>
        </mxCell>
        <mxCell id="bIl1oVP9R7wfNS6xyu3X-8" value="" style="endArrow=none;html=1;rounded=0;" edge="1" parent="bIl1oVP9R7wfNS6xyu3X-1">
          <mxGeometry width="50" height="50" relative="1" as="geometry">
            <mxPoint x="262.49" y="225.75" as="sourcePoint" />
            <mxPoint x="262.49" y="175.75" as="targetPoint" />
          </mxGeometry>
        </mxCell>
        <mxCell id="bIl1oVP9R7wfNS6xyu3X-9" value="" style="endArrow=none;html=1;rounded=0;" edge="1" parent="bIl1oVP9R7wfNS6xyu3X-1">
          <mxGeometry width="50" height="50" relative="1" as="geometry">
            <mxPoint x="237.5" y="200.75" as="sourcePoint" />
            <mxPoint x="287.49" y="200.75" as="targetPoint" />
          </mxGeometry>
        </mxCell>
        <mxCell id="bIl1oVP9R7wfNS6xyu3X-10" value="" style="endArrow=openThin;html=1;rounded=0;entryX=1;entryY=0.5;entryDx=0;entryDy=0;strokeWidth=1;endFill=0;fillColor=#bac8d3;strokeColor=#23445d;fontSize=26;" edge="1" parent="bIl1oVP9R7wfNS6xyu3X-1" target="bIl1oVP9R7wfNS6xyu3X-6">
          <mxGeometry width="50" height="50" relative="1" as="geometry">
            <mxPoint x="262.49" y="200.75" as="sourcePoint" />
            <mxPoint x="312.49" y="150.75" as="targetPoint" />
          </mxGeometry>
        </mxCell>
        <mxCell id="bIl1oVP9R7wfNS6xyu3X-11" value="Im" style="text;html=1;align=center;verticalAlign=middle;resizable=0;points=[];autosize=1;strokeColor=none;fillColor=none;fontSize=18;" vertex="1" parent="bIl1oVP9R7wfNS6xyu3X-1">
          <mxGeometry x="242.5" y="145" width="40" height="40" as="geometry" />
        </mxCell>
        <mxCell id="bIl1oVP9R7wfNS6xyu3X-12" value="Re" style="text;html=1;align=center;verticalAlign=middle;resizable=0;points=[];autosize=1;strokeColor=none;fillColor=none;fontSize=18;" vertex="1" parent="bIl1oVP9R7wfNS6xyu3X-1">
          <mxGeometry x="277.5" y="180.75" width="50" height="40" as="geometry" />
        </mxCell>
        <mxCell id="bIl1oVP9R7wfNS6xyu3X-13" value="" style="endArrow=classic;html=1;rounded=0;" edge="1" parent="bIl1oVP9R7wfNS6xyu3X-1">
          <mxGeometry width="50" height="50" relative="1" as="geometry">
            <mxPoint x="140.67000000000007" y="201.25" as="sourcePoint" />
            <mxPoint x="162" y="201.10000000000002" as="targetPoint" />
          </mxGeometry>
        </mxCell>
        <mxCell id="bIl1oVP9R7wfNS6xyu3X-14" value="V" style="text;html=1;align=center;verticalAlign=middle;whiteSpace=wrap;rounded=0;fontSize=18;" vertex="1" parent="bIl1oVP9R7wfNS6xyu3X-1">
          <mxGeometry x="154.08999999999992" y="175.75" width="60" height="30" as="geometry" />
        </mxCell>
        <mxCell id="bIl1oVP9R7wfNS6xyu3X-15" value="" style="endArrow=none;html=1;rounded=0;" edge="1" parent="bIl1oVP9R7wfNS6xyu3X-1">
          <mxGeometry width="50" height="50" relative="1" as="geometry">
            <mxPoint x="169.08999999999992" y="201.75" as="sourcePoint" />
            <mxPoint x="199.08999999999992" y="201.75" as="targetPoint" />
          </mxGeometry>
        </mxCell>
        <mxCell id="bIl1oVP9R7wfNS6xyu3X-16" value="I" style="text;html=1;align=center;verticalAlign=middle;whiteSpace=wrap;rounded=0;fontSize=18;" vertex="1" parent="bIl1oVP9R7wfNS6xyu3X-1">
          <mxGeometry x="154.08999999999992" y="199" width="60" height="30" as="geometry" />
        </mxCell>
        <mxCell id="bIl1oVP9R7wfNS6xyu3X-17" value="&lt;font style=&quot;font-size: 24px;&quot;&gt;Spectral Impedance Analysis&lt;/font&gt;" style="text;html=1;align=center;verticalAlign=middle;resizable=0;points=[];autosize=1;strokeColor=none;fillColor=none;fontSize=24;" vertex="1" parent="bIl1oVP9R7wfNS6xyu3X-1">
          <mxGeometry x="27.5" y="113.75" width="330" height="40" as="geometry" />
        </mxCell>
        <mxCell id="bIl1oVP9R7wfNS6xyu3X-18" value="" style="endArrow=classic;html=1;rounded=0;" edge="1" parent="bIl1oVP9R7wfNS6xyu3X-1">
          <mxGeometry width="50" height="50" relative="1" as="geometry">
            <mxPoint x="211.34000000000015" y="201.25" as="sourcePoint" />
            <mxPoint x="232.67000000000007" y="201.10000000000002" as="targetPoint" />
          </mxGeometry>
        </mxCell>
        <mxCell id="bIl1oVP9R7wfNS6xyu3X-19" value="" style="rounded=1;whiteSpace=wrap;html=1;fillColor=none;" vertex="1" parent="bIl1oVP9R7wfNS6xyu3X-1">
          <mxGeometry x="385" y="146.25" width="127.5" height="75" as="geometry" />
        </mxCell>
        <mxCell id="bIl1oVP9R7wfNS6xyu3X-20" value="&lt;font style=&quot;font-size: 24px;&quot;&gt;Derived&lt;br style=&quot;font-size: 24px;&quot;&gt;Quantities&lt;/font&gt;" style="text;html=1;align=center;verticalAlign=middle;resizable=0;points=[];autosize=1;strokeColor=none;fillColor=none;fontSize=24;" vertex="1" parent="bIl1oVP9R7wfNS6xyu3X-1">
          <mxGeometry x="383.75" y="148.75" width="130" height="70" as="geometry" />
        </mxCell>
        <mxCell id="bIl1oVP9R7wfNS6xyu3X-35" style="edgeStyle=orthogonalEdgeStyle;rounded=0;orthogonalLoop=1;jettySize=auto;html=1;exitX=0.5;exitY=1;exitDx=0;exitDy=0;strokeWidth=2;endArrow=none;endFill=0;" edge="1" parent="bIl1oVP9R7wfNS6xyu3X-1" source="bIl1oVP9R7wfNS6xyu3X-21">
          <mxGeometry relative="1" as="geometry">
            <mxPoint x="447.5999999999999" y="480" as="targetPoint" />
          </mxGeometry>
        </mxCell>
        <mxCell id="bIl1oVP9R7wfNS6xyu3X-21" value="" style="rounded=1;whiteSpace=wrap;html=1;fillColor=none;" vertex="1" parent="bIl1oVP9R7wfNS6xyu3X-1">
          <mxGeometry x="382.5" y="268.75" width="130" height="75" as="geometry" />
        </mxCell>
        <mxCell id="bIl1oVP9R7wfNS6xyu3X-22" value="" style="sketch=0;outlineConnect=0;fontColor=#232F3E;gradientColor=none;fillColor=#232F3D;strokeColor=none;dashed=0;verticalLabelPosition=bottom;verticalAlign=top;align=center;html=1;fontSize=12;fontStyle=0;aspect=fixed;pointerEvents=1;shape=mxgraph.aws4.generic_database;" vertex="1" parent="bIl1oVP9R7wfNS6xyu3X-1">
          <mxGeometry x="435.21000000000004" y="303.75" width="24.58" height="32.5" as="geometry" />
        </mxCell>
        <mxCell id="bIl1oVP9R7wfNS6xyu3X-23" value="&lt;font style=&quot;font-size: 24px;&quot;&gt;Memory&lt;/font&gt;" style="text;html=1;align=center;verticalAlign=middle;resizable=0;points=[];autosize=1;strokeColor=none;fillColor=none;fontSize=24;" vertex="1" parent="bIl1oVP9R7wfNS6xyu3X-1">
          <mxGeometry x="392.5" y="263.75" width="110" height="40" as="geometry" />
        </mxCell>
        <mxCell id="bIl1oVP9R7wfNS6xyu3X-24" style="edgeStyle=orthogonalEdgeStyle;rounded=0;orthogonalLoop=1;jettySize=auto;html=1;entryX=0.511;entryY=0.004;entryDx=0;entryDy=0;entryPerimeter=0;strokeWidth=2;fontSize=26;" edge="1" parent="bIl1oVP9R7wfNS6xyu3X-1" source="bIl1oVP9R7wfNS6xyu3X-19" target="bIl1oVP9R7wfNS6xyu3X-21">
          <mxGeometry relative="1" as="geometry" />
        </mxCell>
        <mxCell id="bIl1oVP9R7wfNS6xyu3X-32" style="edgeStyle=orthogonalEdgeStyle;rounded=0;orthogonalLoop=1;jettySize=auto;html=1;strokeWidth=2;endArrow=none;endFill=0;" edge="1" parent="bIl1oVP9R7wfNS6xyu3X-1" source="bIl1oVP9R7wfNS6xyu3X-25">
          <mxGeometry relative="1" as="geometry">
            <mxPoint x="-63" y="520" as="targetPoint" />
            <Array as="points">
              <mxPoint x="120" y="520" />
            </Array>
          </mxGeometry>
        </mxCell>
        <mxCell id="bIl1oVP9R7wfNS6xyu3X-25" value="&lt;font style=&quot;font-size: 24px;&quot;&gt;Bias&lt;br style=&quot;font-size: 24px;&quot;&gt;Control&lt;/font&gt;" style="rounded=1;whiteSpace=wrap;html=1;fontSize=24;" vertex="1" parent="bIl1oVP9R7wfNS6xyu3X-1">
          <mxGeometry x="41.25" y="360" width="157" height="70" as="geometry" />
        </mxCell>
        <mxCell id="bIl1oVP9R7wfNS6xyu3X-26" style="edgeStyle=orthogonalEdgeStyle;rounded=0;orthogonalLoop=1;jettySize=auto;html=1;entryX=0.5;entryY=0;entryDx=0;entryDy=0;strokeWidth=2;fontSize=26;" edge="1" parent="bIl1oVP9R7wfNS6xyu3X-1" source="bIl1oVP9R7wfNS6xyu3X-27" target="bIl1oVP9R7wfNS6xyu3X-25">
          <mxGeometry relative="1" as="geometry" />
        </mxCell>
        <mxCell id="bIl1oVP9R7wfNS6xyu3X-34" style="edgeStyle=orthogonalEdgeStyle;rounded=0;orthogonalLoop=1;jettySize=auto;html=1;strokeWidth=2;endArrow=none;endFill=0;startArrow=classicThin;startFill=1;" edge="1" parent="bIl1oVP9R7wfNS6xyu3X-1" source="bIl1oVP9R7wfNS6xyu3X-27">
          <mxGeometry relative="1" as="geometry">
            <mxPoint x="297" y="480" as="targetPoint" />
          </mxGeometry>
        </mxCell>
        <mxCell id="bIl1oVP9R7wfNS6xyu3X-27" value="&lt;font style=&quot;font-size: 24px;&quot;&gt;Test&lt;br style=&quot;font-size: 24px;&quot;&gt;Parameters&lt;/font&gt;" style="rounded=1;whiteSpace=wrap;html=1;fontSize=24;" vertex="1" parent="bIl1oVP9R7wfNS6xyu3X-1">
          <mxGeometry x="40" y="276.25" width="159.5" height="60" as="geometry" />
        </mxCell>
        <mxCell id="bIl1oVP9R7wfNS6xyu3X-28" style="edgeStyle=orthogonalEdgeStyle;rounded=0;orthogonalLoop=1;jettySize=auto;html=1;entryX=1.001;entryY=0.205;entryDx=0;entryDy=0;entryPerimeter=0;startArrow=classic;startFill=1;endArrow=none;endFill=0;strokeWidth=2;fontSize=26;" edge="1" parent="1" source="bIl1oVP9R7wfNS6xyu3X-3">
          <mxGeometry relative="1" as="geometry">
            <mxPoint x="80" y="304" as="targetPoint" />
          </mxGeometry>
        </mxCell>
        <mxCell id="bIl1oVP9R7wfNS6xyu3X-29" style="edgeStyle=orthogonalEdgeStyle;rounded=0;orthogonalLoop=1;jettySize=auto;html=1;entryX=1.001;entryY=0.478;entryDx=0;entryDy=0;entryPerimeter=0;strokeWidth=2;startArrow=classic;startFill=1;fontSize=26;endArrow=none;endFill=0;" edge="1" parent="1" source="bIl1oVP9R7wfNS6xyu3X-27">
          <mxGeometry relative="1" as="geometry">
            <mxPoint x="80" y="426" as="targetPoint" />
          </mxGeometry>
        </mxCell>
        <mxCell id="bIl1oVP9R7wfNS6xyu3X-30" value="" style="shape=hexagon;perimeter=hexagonPerimeter2;whiteSpace=wrap;html=1;fixedSize=1;size=7;" vertex="1" parent="1">
          <mxGeometry x="31.5" y="417" width="53" height="17" as="geometry" />
        </mxCell>
        <mxCell id="bIl1oVP9R7wfNS6xyu3X-31" value="" style="shape=offPageConnector;whiteSpace=wrap;html=1;rotation=-90;size=0.15555555555555556;" vertex="1" parent="1">
          <mxGeometry x="52" y="282" width="16" height="45" as="geometry" />
        </mxCell>
        <mxCell id="bIl1oVP9R7wfNS6xyu3X-33" value="" style="shape=offPageConnector;whiteSpace=wrap;html=1;rotation=90;size=0.15555555555555556;" vertex="1" parent="1">
          <mxGeometry x="50" y="618" width="16" height="45" as="geometry" />
        </mxCell>
        <mxCell id="bIl1oVP9R7wfNS6xyu3X-36" value="" style="shape=offPageConnector;whiteSpace=wrap;html=1;rotation=-180;size=0.15555555555555556;" vertex="1" parent="1">
          <mxGeometry x="431.25" y="598" width="16" height="45" as="geometry" />
        </mxCell>
        <mxCell id="bIl1oVP9R7wfNS6xyu3X-37" value="" style="shape=offPageConnector;whiteSpace=wrap;html=1;rotation=0;size=0.15555555555555556;" vertex="1" parent="1">
          <mxGeometry x="583" y="598" width="16" height="45" as="geometry" />
        </mxCell>
        <mxCell id="bIl1oVP9R7wfNS6xyu3X-38" value="&lt;font style=&quot;font-size: 18px;&quot;&gt;Sample Memory&lt;br&gt;(From FPGA)&lt;/font&gt;" style="text;html=1;align=center;verticalAlign=middle;resizable=0;points=[];autosize=1;strokeColor=none;fillColor=none;fontSize=18;" vertex="1" parent="1">
          <mxGeometry x="-118.5" y="274.5" width="150" height="60" as="geometry" />
        </mxCell>
        <mxCell id="bIl1oVP9R7wfNS6xyu3X-39" value="&lt;font style=&quot;font-size: 18px;&quot;&gt;Test Parameters&lt;br&gt;(To and from FPGA)&lt;/font&gt;" style="text;html=1;align=center;verticalAlign=middle;resizable=0;points=[];autosize=1;strokeColor=none;fillColor=none;fontSize=18;" vertex="1" parent="1">
          <mxGeometry x="-148.5" y="390" width="180" height="60" as="geometry" />
        </mxCell>
        <mxCell id="bIl1oVP9R7wfNS6xyu3X-40" value="&lt;font style=&quot;font-size: 18px;&quot;&gt;DC Bias&lt;br&gt;(To Analog Front End)&lt;/font&gt;" style="text;html=1;align=center;verticalAlign=middle;resizable=0;points=[];autosize=1;strokeColor=none;fillColor=none;fontSize=18;" vertex="1" parent="1">
          <mxGeometry x="-168.5" y="610.5" width="200" height="60" as="geometry" />
        </mxCell>
        <mxCell id="bIl1oVP9R7wfNS6xyu3X-41" value="&lt;font style=&quot;font-size: 18px;&quot;&gt;Test Parameters&lt;/font&gt;&lt;div&gt;&lt;font style=&quot;font-size: 18px;&quot;&gt;(From UI)&lt;/font&gt;&lt;/div&gt;" style="text;html=1;align=center;verticalAlign=middle;resizable=0;points=[];autosize=1;strokeColor=none;fillColor=none;fontSize=18;rotation=-45;" vertex="1" parent="1">
          <mxGeometry x="380" y="660" width="150" height="60" as="geometry" />
        </mxCell>
        <mxCell id="bIl1oVP9R7wfNS6xyu3X-42" value="&lt;div&gt;&lt;font style=&quot;font-size: 18px;&quot;&gt;Test Results&lt;br&gt;(To UI)&lt;/font&gt;&lt;/div&gt;" style="text;html=1;align=center;verticalAlign=middle;resizable=0;points=[];autosize=1;strokeColor=none;fillColor=none;fontSize=18;rotation=-45;" vertex="1" parent="1">
          <mxGeometry x="545" y="660" width="120" height="60" as="geometry" />
        </mxCell>
      </root>
    </mxGraphModel>
  </diagram>
</mxfile>
